# xmcd
# 
# Track frame offsets:
#     150
#     14526
#     44845
#     62600
#     91294
#     106277
#     125897
#     154600
#     174802
#     198786
#     221543
#     239983
#     256793
#     282214
#     301221
#     327231
# 
# Disc length: 4656
# 
# Revision: 0
# Processed by: cddbd v1.5.2PL0 Copyright (c) Steve Scherf et al.
# Submitted via: fre:ac v1.0.17
# 
DISCID=e1122e10
DTITLE=Sweet d'Buster - Magic Moments
DYEAR=0
DGENRE=Post-Rock
TTITLE0=One way or Another
TTITLE1=Tip of my Tongue
TTITLE2=You're gonna be a Winner
TTITLE3=Minutes (have come to a chain)
TTITLE4=Bread
TTITLE5=Ready for Love
TTITLE6=Magic Moment
TTITLE7=Going Nowhere
TTITLE8=Angel
TTITLE9=Hard Stone Jungle
TTITLE10=Still Believe
TTITLE11=Money Song
TTITLE12=Stir up the Fire
TTITLE13=Smash the Mirror
TTITLE14=I've gotta know
TTITLE15=It Takes a lot of Time (to let all people know)
EXTD=(R)1992 Ariola Benelux
EXTT0=
EXTT1=
EXTT2=
EXTT3=
EXTT4=
EXTT5=
EXTT6=
EXTT7=
EXTT8=
EXTT9=
EXTT10=
EXTT11=
EXTT12=
EXTT13=
EXTT14=
EXTT15=
PLAYORDER=
